<!-- <div>Icons made by <a href="https://www.freepik.com" title="Freepik">Freepik</a> from <a href="https://www.flaticon.com/" title="Flaticon">www.flaticon.com</a></div>-->
<svg enable-background="new 0 0 512.042 512.042" height="512" viewBox="0 0 512.042 512.042" width="512" xmlns="http://www.w3.org/2000/svg"><g><g><g><path d="m446.999 477c0-18.918 0-244.152 0-375l-92-92h-339.96v467c0 13.81 11.19 25 25 25h426.96c-.16-.2-.33-.41-.49-.61-11.17-2.5-19.51-12.47-19.51-24.39z" fill="#faf7f5"/><path d="m354.999 102h92l-92-92z" fill="#e6e6f9"/><path d="m497 55.998v421c.22 15.88-15.33 28.16-30.71 24.33-11.07-2.39-19.46-13.02-19.29-24.33v-375l-46-46z" fill="#b5b3ee"/><path d="m62.022 328.388h126.63v126.63h-126.63z" fill="#fff2a0"/></g></g><g><path d="m59.045 132.603c-4.178 1.302-7.023 5.17-7.023 9.547v79.85c0 5.523 4.477 10 10 10 5.522 0 10-4.477 10-10v-47.771l35.765 51.79c2.94 4.245 7.837 6.051 12.487 4.599 4.743-1.482 7.808-5.922 7.808-11.409l-.748-77.304c-.054-5.49-4.521-9.903-9.998-9.903-.032 0-.066 0-.099.001-5.522.053-9.956 4.574-9.903 10.096l.473 48.753-37.556-54.383c-2.488-3.602-7.024-5.168-11.206-3.866z"/><path d="m190.735 152.001c5.522 0 10-4.477 10-10s-4.478-10-10-10h-33.401c-5.523 0-10 4.477-10 10v79.27c0 5.523 4.477 10 10 10h33.401c5.522 0 10-4.477 10-10s-4.478-10-10-10h-23.401v-19.635h20.938c5.522 0 10-4.477 10-10s-4.478-10-10-10h-20.938v-19.635z"/><path d="m375.944 212.001c-7.951 0-15.603-3.205-20.468-8.574-3.71-4.092-10.032-4.403-14.125-.694s-4.403 10.033-.695 14.125c8.594 9.482 21.785 15.144 35.288 15.144 16.859 0 31.017-10.758 33.663-25.581 1.992-11.154-3.071-25.726-23.256-33.171-9.826-3.625-18.975-7.572-21.783-8.802-2.177-1.751-2.104-4.189-1.958-5.206.203-1.412 1.228-4.863 6.364-6.41 11.274-3.398 21.732 4.864 22.017 5.091 4.226 3.505 10.497 2.947 14.037-1.264 3.554-4.228 3.007-10.536-1.221-14.089-.756-.635-18.739-15.472-40.603-8.887-11.044 3.327-18.857 12.032-20.392 22.718-1.439 10.026 2.907 19.671 11.343 25.17.441.288.905.541 1.387.755.463.207 11.48 5.11 23.887 9.688 3.508 1.294 11.551 4.945 10.489 10.891-.797 4.471-6.244 9.096-13.974 9.096z"/><path d="m283.627 139.056c-1.627-5.278-7.222-8.242-12.501-6.612-3.585 1.104-6.095 4.041-6.831 7.465l-14.508 46.873-9.242-46.722c-1.071-5.418-6.332-8.94-11.75-7.87-5.418 1.072-8.941 6.332-7.869 11.75l15.587 78.798c.094.478.224.949.387 1.408 1.672 4.706 6.136 7.853 11.124 7.853h.078c5.021-.033 9.48-3.249 11.099-8.001.029-.088.059-.177.086-.267l14.785-47.766 14.719 47.777c.042.135.086.27.134.404 1.672 4.706 6.136 7.853 11.124 7.853h.082c5.022-.035 9.48-3.252 11.096-8.006.141-.414.255-.837.34-1.266l15.648-78.629c1.078-5.416-2.439-10.681-7.855-11.759-5.416-1.081-10.682 2.439-11.76 7.856l-9.271 46.579z"/><circle cx="241.019" cy="502.018" r="10"/><path d="m497.001 45.998h-91.862l-43.069-43.069c-1.876-1.875-4.419-2.929-7.071-2.929h-339.959c-5.523 0-10 4.477-10 10v467c0 19.299 15.701 35 35 35h155.979c5.522 0 10-4.477 10-10s-4.478-10-10-10h-155.979c-8.271 0-15-6.729-15-15v-457h319.959v82.001c0 5.523 4.478 10 10 10h82l.001 364.999c0 5.349 1.18 10.44 3.323 15h-154.304c-5.522 0-10 4.477-10 10s4.478 10 10 10c0 0 184.363.034 186.07.042 7.708 0 15.294-2.638 21.635-7.664 8.564-6.789 13.399-16.786 13.276-27.439v-420.941c.001-5.523-4.477-10-9.999-10zm-132.002-11.855 57.858 57.858h-57.858zm116.3 454.562c-3.693 2.928-8.282 3.993-12.593 2.919l-.002.01c-6.714-1.492-11.723-7.657-11.704-14.634l-.001-375c0-2.652-1.054-5.196-2.929-7.071l-28.931-28.932h61.862v411c.101 4.485-1.976 8.756-5.702 11.708z"/><path d="m288.519 66c5.523 0 10-4.477 10-10s-4.477-10-10-10h-79.809c-5.522 0-10 4.477-10 10s4.478 10 10 10z"/><path d="m81.519 66h79.811c5.523 0 10-4.477 10-10s-4.477-10-10-10h-79.811c-5.522 0-10 4.477-10 10s4.478 10 10 10z"/><path d="m81.519 106h207c5.523 0 10-4.477 10-10s-4.477-10-10-10h-207c-5.522 0-10 4.477-10 10s4.478 10 10 10z"/><path d="m62.022 318.388c-5.523 0-10 4.477-10 10v126.63c0 5.523 4.477 10 10 10h126.63c5.522 0 10-4.477 10-10v-126.63c0-5.523-4.478-10-10-10zm116.63 126.63h-106.63v-106.63h106.63z"/><path d="m410.016 274.829c0-5.523-4.477-10-10-10h-337.994c-5.523 0-10 4.477-10 10s4.477 10 10 10h337.994c5.523 0 10-4.477 10-10z"/><path d="m400.016 336.343h-151.401c-5.522 0-10 4.477-10 10s4.478 10 10 10h151.401c5.523 0 10-4.477 10-10s-4.477-10-10-10z"/><path d="m400.016 381.703h-151.401c-5.522 0-10 4.477-10 10s4.478 10 10 10h151.401c5.523 0 10-4.477 10-10s-4.477-10-10-10z"/><path d="m400.016 427.062h-151.401c-5.522 0-10 4.477-10 10s4.478 10 10 10h151.401c5.523 0 10-4.477 10-10s-4.477-10-10-10z"/></g></g></svg>